<?xml version="1.0" standalone="no"?>
<!DOCTYPE svg PUBLIC "-//W3C//DTD SVG 20010904//EN"
 "http://www.w3.org/TR/2001/REC-SVG-20010904/DTD/svg10.dtd">
<svg version="1.0" xmlns="http://www.w3.org/2000/svg"
 width="225.000000pt" height="225.000000pt" viewBox="0 0 225.000000 225.000000"
 preserveAspectRatio="xMidYMid meet">

<g transform="translate(0.000000,225.000000) scale(0.100000,-0.100000)"
fill="#000000" stroke="none">
<path d="M1005 2129 c-85 -11 -221 -49 -300 -84 -142 -62 -315 -207 -409 -343
-43 -61 -116 -201 -116 -221 0 -7 -27 -11 -71 -11 -118 0 -109 30 -109 -345 0
-374 -9 -345 107 -345 l68 0 23 -59 c33 -86 130 -227 213 -309 166 -167 370
-264 616 -292 220 -26 463 35 659 166 152 101 304 281 364 433 l25 61 68 0
c116 0 107 -29 107 345 0 374 9 345 -107 345 l-68 0 -25 61 c-35 90 -128 225
-211 307 -163 164 -367 262 -604 291 -101 12 -130 12 -230 0z m73 -311 l-3
-203 -169 -3 -168 -2 7 27 c9 37 69 155 104 207 54 78 176 174 224 176 4 0 6
-91 5 -202z m171 182 c75 -35 172 -143 230 -260 28 -56 51 -108 51 -116 0 -12
-29 -14 -177 -12 l-178 3 -3 203 c-3 229 -7 220 77 182z m-437 -42 c-46 -48
-126 -186 -157 -273 l-28 -75 -133 0 c-74 0 -134 3 -134 6 0 30 168 205 252
262 49 34 205 112 222 112 5 0 -4 -15 -22 -32z m708 -12 c95 -47 153 -88 233
-165 63 -60 137 -150 137 -165 0 -3 -55 -6 -123 -6 l-123 0 -33 83 c-40 97
-89 185 -138 245 -19 23 -32 42 -28 42 3 0 37 -15 75 -34z m-922 -453 c-3 -16
-20 -18 -161 -21 -156 -2 -158 -2 -147 18 10 19 20 20 161 20 138 0 150 -1
147 -17z m480 0 c-3 -16 -21 -18 -191 -21 -182 -2 -187 -2 -187 18 0 19 6 20
191 20 176 0 190 -1 187 -17z m492 -3 c0 -20 -5 -20 -197 -18 -179 3 -198 5
-201 21 -3 16 11 17 197 17 195 0 201 -1 201 -20z m390 0 c11 -20 9 -21 -137
-18 -131 3 -148 5 -151 21 -3 15 9 17 137 17 131 0 141 -1 151 -20z m-1503
-237 c32 -25 63 -51 70 -56 8 -6 34 9 81 47 l69 56 72 0 c39 0 71 -3 71 -7 -1
-5 -43 -41 -95 -81 -52 -40 -95 -77 -95 -82 0 -4 47 -44 104 -87 58 -43 105
-81 105 -85 1 -5 -32 -8 -73 -8 l-74 0 -77 60 c-43 32 -83 56 -89 53 -6 -4
-42 -31 -80 -60 l-68 -53 -74 0 c-41 0 -74 3 -74 8 1 4 46 41 101 82 55 41
104 80 109 85 6 7 -22 35 -80 79 -128 97 -127 96 -37 96 75 0 76 0 134 -47z
m624 -22 l82 -70 80 70 80 69 73 0 c41 0 74 -2 74 -4 0 -2 -54 -47 -120 -100
l-119 -96 -3 -72 -3 -73 -65 0 -65 0 -3 72 -3 72 -119 96 c-66 52 -120 98
-120 100 0 3 33 5 74 5 l75 0 82 -69z m927 37 c-3 -29 -16 -40 -181 -142
l-177 -111 191 -3 190 -2 -3 -28 -3 -27 -270 0 -270 0 -3 31 c-3 30 2 34 155
129 87 54 165 104 173 111 12 12 -9 14 -138 14 l-152 0 0 23 c0 13 3 27 7 30
3 4 114 7 245 7 l239 0 -3 -32z m-1418 -508 c0 -19 -7 -20 -145 -20 -134 0
-145 1 -155 20 -10 20 -8 20 145 20 148 0 155 -1 155 -20z m488 -3 c3 -16 -9
-17 -190 -15 -175 3 -193 5 -196 21 -3 16 9 17 190 15 175 -3 193 -5 196 -21z
m498 7 c-3 -9 -6 -18 -6 -20 0 -2 -90 -4 -200 -4 -160 0 -200 3 -200 13 0 8 3
17 7 20 3 4 96 7 206 7 177 0 198 -2 193 -16z m384 -4 c-10 -19 -21 -20 -149
-20 -134 0 -139 1 -134 20 5 19 14 20 150 20 141 0 143 0 133 -20z m-1311
-200 c36 -97 63 -150 117 -227 24 -35 42 -63 39 -63 -2 0 -24 9 -50 20 -80 34
-187 109 -263 183 -66 64 -132 145 -132 162 0 3 59 4 131 3 l131 -3 27 -75z
m429 -129 c1 -113 -1 -208 -5 -212 -14 -14 -92 29 -148 82 -30 29 -74 81 -96
117 -38 60 -99 192 -99 214 0 5 77 7 173 6 l172 -3 3 -204z m457 187 c-3 -13
-28 -68 -55 -123 -74 -152 -189 -268 -275 -277 l-30 -3 -3 200 c-1 110 0 205
2 212 4 10 49 13 186 13 l181 0 -6 -22z m355 16 c0 -16 -67 -97 -132 -160 -81
-79 -132 -116 -227 -164 -62 -31 -64 -31 -48 -9 57 80 120 207 160 322 6 15
21 17 127 17 66 0 120 -3 120 -6z"/>
</g>
</svg>
